<mxfile host="app.diagrams.net" modified="2024-07-20T16:16:37.446Z" agent="Mozilla/5.0 (Macintosh; Intel Mac OS X 10_15_7) AppleWebKit/537.36 (KHTML, like Gecko) Chrome/126.0.0.0 Safari/537.36" etag="EHOXWrv_spehmIPgmHlp" version="24.7.1" type="device">
  <diagram name="Page-1" id="vtT_lSOkQyAgZ53lPYPZ">
    <mxGraphModel dx="1314" dy="801" grid="1" gridSize="10" guides="1" tooltips="1" connect="1" arrows="1" fold="1" page="1" pageScale="1" pageWidth="850" pageHeight="1100" math="0" shadow="0">
      <root>
        <mxCell id="0" />
        <mxCell id="1" parent="0" />
        <mxCell id="Nn9Nflq3pPzsIlSAH6j6-9" value="&lt;div&gt;&lt;font style=&quot;font-size: 6px;&quot;&gt;&lt;i&gt;# Use pygame to draw map&lt;/i&gt;&lt;/font&gt;&lt;/div&gt;&lt;font style=&quot;font-size: 8px;&quot;&gt;draw_map(&lt;span style=&quot;text-align: left;&quot;&gt;camera_offset,&amp;nbsp;&lt;/span&gt;&lt;span style=&quot;text-align: left;&quot;&gt;camera_scale&lt;/span&gt;)&lt;/font&gt;&lt;div&gt;&lt;span style=&quot;font-size: 8px;&quot;&gt;- fill black&lt;br&gt;&lt;/span&gt;&lt;div&gt;&lt;font style=&quot;font-size: 8px;&quot;&gt;- draw_background&lt;/font&gt;&lt;/div&gt;&lt;/div&gt;" style="rounded=0;whiteSpace=wrap;html=1;" parent="1" vertex="1">
          <mxGeometry x="570" y="245.82999999999998" width="200" height="70" as="geometry" />
        </mxCell>
        <mxCell id="Nn9Nflq3pPzsIlSAH6j6-20" value="&lt;div&gt;&lt;i&gt;&lt;font style=&quot;font-size: 6px;&quot;&gt;# get current index in the grid_data and also check if in the grid area&lt;/font&gt;&lt;span style=&quot;font-size: 8px;&quot;&gt;&amp;nbsp;&lt;/span&gt;&lt;/i&gt;&lt;/div&gt;&lt;span style=&quot;font-size: 8px;&quot;&gt;ScreenToGridCoordinate(&lt;/span&gt;&lt;span style=&quot;font-size: 8px; text-align: left; background-color: initial;&quot;&gt;screen_coordinate,&lt;/span&gt;&lt;div&gt;&lt;div style=&quot;text-align: left;&quot;&gt;&lt;span style=&quot;font-size: 8px;&quot;&gt;camera_offset,&amp;nbsp;&lt;/span&gt;&lt;span style=&quot;font-size: 8px; background-color: initial;&quot;&gt;camera_scale)&lt;/span&gt;&lt;/div&gt;&lt;div&gt;&lt;span style=&quot;font-size: 8px;&quot;&gt;-&amp;gt; x, y&lt;/span&gt;&lt;/div&gt;&lt;/div&gt;" style="rounded=0;whiteSpace=wrap;html=1;" parent="1" vertex="1">
          <mxGeometry x="320" y="120" width="200" height="60" as="geometry" />
        </mxCell>
        <mxCell id="jE244axQyTbM1ohp8PAl-2" value="&lt;div&gt;&lt;span style=&quot;font-size: 8px; background-color: initial;&quot;&gt;background&lt;/span&gt;&lt;br&gt;&lt;/div&gt;&lt;div style=&quot;text-align: left;&quot;&gt;&lt;span style=&quot;font-size: 8px; background-color: initial;&quot;&gt;- sprite_group: Group # Draw sprites&lt;/span&gt;&lt;/div&gt;&lt;div style=&quot;text-align: left;&quot;&gt;&lt;span style=&quot;font-size: 8px; background-color: initial;&quot;&gt;- sprite_dict: dict # Track sprite by index&lt;/span&gt;&lt;/div&gt;&lt;div style=&quot;text-align: left;&quot;&gt;&lt;span style=&quot;background-color: initial; font-size: 8px;&quot;&gt;- data: list[x][y] = int&lt;/span&gt;&lt;/div&gt;" style="rounded=0;whiteSpace=wrap;html=1;" parent="1" vertex="1">
          <mxGeometry x="320" y="180" width="200" height="68.34" as="geometry" />
        </mxCell>
        <mxCell id="Nn9Nflq3pPzsIlSAH6j6-3" value="Map" style="rounded=0;whiteSpace=wrap;html=1;" parent="1" vertex="1">
          <mxGeometry x="320" y="40" width="200" height="21.063500258131132" as="geometry" />
        </mxCell>
        <mxCell id="Nn9Nflq3pPzsIlSAH6j6-4" value="&lt;div&gt;&lt;b style=&quot;font-size: 8px;&quot;&gt;- Global&lt;/b&gt;&lt;span style=&quot;font-size: 8px;&quot;&gt;&amp;nbsp;grid_pixel: int&lt;/span&gt;&lt;span style=&quot;font-size: 8px;&quot;&gt;&lt;br&gt;&lt;/span&gt;&lt;/div&gt;&lt;span style=&quot;font-size: 8px;&quot;&gt;- grid_size: tuple(int, int)&lt;/span&gt;&lt;div&gt;&lt;br&gt;&lt;/div&gt;" style="rounded=0;whiteSpace=wrap;html=1;align=left;" parent="1" vertex="1">
          <mxGeometry x="320" y="61.06" width="200" height="58.94" as="geometry" />
        </mxCell>
        <mxCell id="Nn9Nflq3pPzsIlSAH6j6-7" value="Camera" style="rounded=0;whiteSpace=wrap;html=1;" parent="1" vertex="1">
          <mxGeometry x="40" y="40" width="130" height="20" as="geometry" />
        </mxCell>
        <mxCell id="Nn9Nflq3pPzsIlSAH6j6-8" value="&lt;div&gt;&lt;span style=&quot;font-size: 6px;&quot;&gt;&lt;i&gt;# Called for update variables &lt;u&gt;camera_offset&lt;/u&gt; and&amp;nbsp; &lt;u&gt;camera_scale&lt;/u&gt;&lt;/i&gt;&lt;/span&gt;&lt;span style=&quot;font-size: 8px;&quot;&gt;&lt;br&gt;&lt;/span&gt;&lt;/div&gt;&lt;span style=&quot;font-size: 8px;&quot;&gt;camera_movement()&lt;/span&gt;&lt;div style=&quot;&quot;&gt;&lt;span style=&quot;font-size: 8px; background-color: initial;&quot;&gt;W, A, S, D and zooming&lt;/span&gt;&lt;br&gt;&lt;/div&gt;" style="rounded=0;whiteSpace=wrap;html=1;" parent="1" vertex="1">
          <mxGeometry x="40" y="100" width="130" height="60" as="geometry" />
        </mxCell>
        <mxCell id="Nn9Nflq3pPzsIlSAH6j6-11" value="&lt;div style=&quot;text-align: left;&quot;&gt;&lt;span style=&quot;font-size: 8px; background-color: initial;&quot;&gt;&lt;b&gt;-&amp;nbsp;&lt;/b&gt;camera_offset: Vector2()&lt;/span&gt;&lt;/div&gt;&lt;div style=&quot;text-align: left;&quot;&gt;&lt;span style=&quot;font-size: 8px;&quot;&gt;&lt;b&gt;-&amp;nbsp;&lt;/b&gt;camera_scale: float&lt;/span&gt;&lt;span style=&quot;font-size: 8px;&quot;&gt;&lt;br&gt;&lt;/span&gt;&lt;/div&gt;" style="rounded=0;whiteSpace=wrap;html=1;" parent="1" vertex="1">
          <mxGeometry x="40" y="60" width="130" height="40" as="geometry" />
        </mxCell>
        <mxCell id="jE244axQyTbM1ohp8PAl-48" value="&lt;span style=&quot;font-size: 8px;&quot;&gt;build_animation()&lt;/span&gt;" style="rounded=0;whiteSpace=wrap;html=1;align=center;" parent="1" vertex="1">
          <mxGeometry x="160" y="550" width="100" height="20" as="geometry" />
        </mxCell>
        <mxCell id="jE244axQyTbM1ohp8PAl-44" value="Building" style="rounded=0;whiteSpace=wrap;html=1;" parent="1" vertex="1">
          <mxGeometry x="160" y="440" width="100" height="20" as="geometry" />
        </mxCell>
        <mxCell id="jE244axQyTbM1ohp8PAl-45" value="&lt;span style=&quot;font-size: 8px;&quot;&gt;- building_require: dict&lt;/span&gt;&lt;div&gt;&lt;i&gt;&lt;font style=&quot;font-size: 6px;&quot;&gt;# i.e {&#39;copper&#39;: 100, &#39;iron&#39;: 50}&lt;/font&gt;&lt;br&gt;&lt;/i&gt;&lt;div&gt;&lt;span style=&quot;font-size: 8px;&quot;&gt;- time: int&lt;/span&gt;&lt;/div&gt;&lt;/div&gt;&lt;div&gt;&lt;span style=&quot;font-size: 8px;&quot;&gt;- area: tuple(int, int)&lt;/span&gt;&lt;/div&gt;&lt;div&gt;&lt;font style=&quot;font-size: 6px;&quot;&gt;# area where to place the building&lt;/font&gt;&lt;/div&gt;" style="rounded=0;whiteSpace=wrap;html=1;align=left;" parent="1" vertex="1">
          <mxGeometry x="160" y="460" width="100" height="70" as="geometry" />
        </mxCell>
        <mxCell id="Nn9Nflq3pPzsIlSAH6j6-25" value="Block(Sprite)" style="rounded=0;whiteSpace=wrap;html=1;" parent="1" vertex="1">
          <mxGeometry x="40" y="200" width="140" height="20" as="geometry" />
        </mxCell>
        <mxCell id="Nn9Nflq3pPzsIlSAH6j6-26" value="&lt;div&gt;&lt;span style=&quot;font-size: 8px; background-color: initial;&quot;&gt;- &lt;b&gt;ID&lt;/b&gt;: int&lt;/span&gt;&lt;/div&gt;&lt;div&gt;&lt;span style=&quot;font-size: 8px; background-color: initial;&quot;&gt;- &lt;b&gt;NAME&lt;/b&gt;: str&lt;/span&gt;&lt;/div&gt;&lt;div&gt;&lt;span style=&quot;font-size: 8px; background-color: initial;&quot;&gt;- &lt;b&gt;IMAGE_SOURCE&lt;/b&gt;: FilePath&amp;nbsp;&lt;/span&gt;&lt;br&gt;&lt;/div&gt;&lt;div&gt;&lt;span style=&quot;background-color: initial;&quot;&gt;&lt;font style=&quot;font-size: 6px;&quot;&gt;&lt;i&gt;# Single image file that also contains animation&lt;/i&gt;&lt;/font&gt;&lt;/span&gt;&lt;/div&gt;&lt;div&gt;&lt;span style=&quot;font-size: 8px;&quot;&gt;- image: py.surface&lt;/span&gt;&lt;/div&gt;&lt;div&gt;&lt;span style=&quot;font-size: 8px; background-color: initial;&quot;&gt;- rect: py.rect&lt;/span&gt;&lt;br&gt;&lt;/div&gt;&lt;div&gt;&lt;div&gt;&lt;span style=&quot;font-size: 8px;&quot;&gt;- position: Vector2()&lt;/span&gt;&lt;/div&gt;&lt;/div&gt;&lt;div&gt;&lt;font style=&quot;font-size: 8px;&quot;&gt;-&amp;nbsp;&lt;/font&gt;&lt;font style=&quot;font-size: 8px;&quot;&gt;is_obstacle: bool&lt;/font&gt;&lt;/div&gt;" style="rounded=0;whiteSpace=wrap;html=1;align=left;" parent="1" vertex="1">
          <mxGeometry x="40" y="220" width="140" height="121.66" as="geometry" />
        </mxCell>
        <mxCell id="jE244axQyTbM1ohp8PAl-50" style="edgeStyle=orthogonalEdgeStyle;rounded=0;orthogonalLoop=1;jettySize=auto;html=1;entryX=0.5;entryY=0;entryDx=0;entryDy=0;" parent="1" source="jE244axQyTbM1ohp8PAl-1" target="jE244axQyTbM1ohp8PAl-44" edge="1">
          <mxGeometry relative="1" as="geometry" />
        </mxCell>
        <mxCell id="jE244axQyTbM1ohp8PAl-1" value="&lt;div&gt;&lt;i style=&quot;&quot;&gt;&lt;font style=&quot;font-size: 6px;&quot;&gt;# update block animation&amp;nbsp;&lt;/font&gt;&lt;/i&gt;&lt;/div&gt;&lt;span style=&quot;font-size: 8px;&quot;&gt;update()&lt;/span&gt;" style="rounded=0;whiteSpace=wrap;html=1;" parent="1" vertex="1">
          <mxGeometry x="40" y="341.66" width="140" height="30" as="geometry" />
        </mxCell>
        <mxCell id="jE244axQyTbM1ohp8PAl-57" value="&lt;span style=&quot;font-size: 8px;&quot;&gt;check_area()&lt;/span&gt;" style="rounded=0;whiteSpace=wrap;html=1;align=center;" parent="1" vertex="1">
          <mxGeometry x="160" y="530" width="100" height="20" as="geometry" />
        </mxCell>
        <mxCell id="jE244axQyTbM1ohp8PAl-65" style="edgeStyle=orthogonalEdgeStyle;rounded=0;orthogonalLoop=1;jettySize=auto;html=1;entryX=1;entryY=0.5;entryDx=0;entryDy=0;" parent="1" source="jE244axQyTbM1ohp8PAl-60" target="jE244axQyTbM1ohp8PAl-62" edge="1">
          <mxGeometry relative="1" as="geometry">
            <mxPoint x="640" y="750" as="targetPoint" />
            <Array as="points">
              <mxPoint x="660" y="780" />
              <mxPoint x="660" y="750" />
            </Array>
          </mxGeometry>
        </mxCell>
        <mxCell id="jE244axQyTbM1ohp8PAl-60" value="&lt;font style=&quot;font-size: 8px;&quot;&gt;draw_background&lt;/font&gt;" style="shape=parallelogram;perimeter=parallelogramPerimeter;whiteSpace=wrap;html=1;fixedSize=1;" parent="1" vertex="1">
          <mxGeometry x="510" y="770" width="120" height="20" as="geometry" />
        </mxCell>
        <mxCell id="jE244axQyTbM1ohp8PAl-66" style="edgeStyle=orthogonalEdgeStyle;rounded=0;orthogonalLoop=1;jettySize=auto;html=1;entryX=1;entryY=0.5;entryDx=0;entryDy=0;exitX=1;exitY=0.5;exitDx=0;exitDy=0;" parent="1" source="jE244axQyTbM1ohp8PAl-61" target="jE244axQyTbM1ohp8PAl-62" edge="1">
          <mxGeometry relative="1" as="geometry">
            <mxPoint x="660" y="740" as="targetPoint" />
            <Array as="points">
              <mxPoint x="660" y="810" />
              <mxPoint x="660" y="750" />
            </Array>
          </mxGeometry>
        </mxCell>
        <mxCell id="jE244axQyTbM1ohp8PAl-61" value="&lt;font style=&quot;font-size: 8px;&quot;&gt;draw_building&lt;/font&gt;" style="shape=parallelogram;perimeter=parallelogramPerimeter;whiteSpace=wrap;html=1;fixedSize=1;" parent="1" vertex="1">
          <mxGeometry x="510" y="800" width="120" height="20" as="geometry" />
        </mxCell>
        <mxCell id="jE244axQyTbM1ohp8PAl-62" value="&lt;font style=&quot;font-size: 8px;&quot;&gt;obstacle_layer&lt;/font&gt;" style="shape=parallelogram;perimeter=parallelogramPerimeter;whiteSpace=wrap;html=1;fixedSize=1;" parent="1" vertex="1">
          <mxGeometry x="510" y="740" width="120" height="20" as="geometry" />
        </mxCell>
        <mxCell id="jE244axQyTbM1ohp8PAl-68" value="&lt;font style=&quot;font-size: 5px;&quot;&gt;update obstacle area&lt;/font&gt;" style="text;strokeColor=none;fillColor=none;align=left;verticalAlign=middle;spacingLeft=4;spacingRight=4;overflow=hidden;points=[[0,0.5],[1,0.5]];portConstraint=eastwest;rotatable=0;whiteSpace=wrap;html=1;" parent="1" vertex="1">
          <mxGeometry x="630" y="730" width="60" height="20" as="geometry" />
        </mxCell>
        <mxCell id="jE244axQyTbM1ohp8PAl-77" value="" style="whiteSpace=wrap;html=1;aspect=fixed;strokeColor=#82b366;fillColor=#d5e8d4;" parent="1" vertex="1">
          <mxGeometry x="720" y="600" width="10" height="10" as="geometry" />
        </mxCell>
        <mxCell id="jE244axQyTbM1ohp8PAl-78" value="" style="whiteSpace=wrap;html=1;aspect=fixed;strokeColor=#666666;fillColor=#f5f5f5;fontColor=#333333;" parent="1" vertex="1">
          <mxGeometry x="720" y="620" width="10" height="10" as="geometry" />
        </mxCell>
        <mxCell id="jE244axQyTbM1ohp8PAl-79" value="" style="whiteSpace=wrap;html=1;aspect=fixed;strokeColor=#d6b656;fillColor=#fff2cc;" parent="1" vertex="1">
          <mxGeometry x="720" y="640" width="10" height="10" as="geometry" />
        </mxCell>
        <mxCell id="jE244axQyTbM1ohp8PAl-80" value="" style="whiteSpace=wrap;html=1;aspect=fixed;strokeColor=#d79b00;fillColor=#ffe6cc;" parent="1" vertex="1">
          <mxGeometry x="720" y="660" width="10" height="10" as="geometry" />
        </mxCell>
        <mxCell id="jE244axQyTbM1ohp8PAl-81" value="" style="whiteSpace=wrap;html=1;aspect=fixed;strokeColor=#9673a6;fillColor=#e1d5e7;" parent="1" vertex="1">
          <mxGeometry x="720" y="680" width="10" height="10" as="geometry" />
        </mxCell>
        <mxCell id="jE244axQyTbM1ohp8PAl-82" value="" style="whiteSpace=wrap;html=1;aspect=fixed;strokeColor=#6c8ebf;fillColor=#dae8fc;" parent="1" vertex="1">
          <mxGeometry x="720" y="700" width="10" height="10" as="geometry" />
        </mxCell>
        <mxCell id="jE244axQyTbM1ohp8PAl-85" value="- grass&lt;div&gt;- rock&lt;/div&gt;&lt;div&gt;- sand&lt;/div&gt;&lt;div&gt;- copper&lt;/div&gt;&lt;div&gt;- lead&lt;/div&gt;&lt;div&gt;- water&lt;/div&gt;" style="text;strokeColor=none;fillColor=none;align=left;verticalAlign=middle;spacingLeft=4;spacingRight=4;overflow=hidden;points=[[0,0.5],[1,0.5]];portConstraint=eastwest;rotatable=0;whiteSpace=wrap;html=1;spacing=2;spacingTop=0;" parent="1" vertex="1">
          <mxGeometry x="735" y="580" width="60" height="120" as="geometry" />
        </mxCell>
        <mxCell id="jE244axQyTbM1ohp8PAl-92" value="" style="whiteSpace=wrap;html=1;aspect=fixed;strokeColor=#82b366;fillColor=#d5e8d4;" parent="1" vertex="1">
          <mxGeometry x="780" y="720" width="10" height="10" as="geometry" />
        </mxCell>
        <mxCell id="jE244axQyTbM1ohp8PAl-93" value="" style="whiteSpace=wrap;html=1;aspect=fixed;strokeColor=#82b366;fillColor=#d5e8d4;" parent="1" vertex="1">
          <mxGeometry x="790" y="720" width="10" height="10" as="geometry" />
        </mxCell>
        <mxCell id="jE244axQyTbM1ohp8PAl-94" value="" style="whiteSpace=wrap;html=1;aspect=fixed;strokeColor=#82b366;fillColor=#d5e8d4;" parent="1" vertex="1">
          <mxGeometry x="800" y="720" width="10" height="10" as="geometry" />
        </mxCell>
        <mxCell id="jE244axQyTbM1ohp8PAl-95" value="" style="whiteSpace=wrap;html=1;aspect=fixed;strokeColor=#82b366;fillColor=#d5e8d4;" parent="1" vertex="1">
          <mxGeometry x="810" y="720" width="10" height="10" as="geometry" />
        </mxCell>
        <mxCell id="jE244axQyTbM1ohp8PAl-96" value="" style="whiteSpace=wrap;html=1;aspect=fixed;strokeColor=#82b366;fillColor=#d5e8d4;" parent="1" vertex="1">
          <mxGeometry x="820" y="720" width="10" height="10" as="geometry" />
        </mxCell>
        <mxCell id="jE244axQyTbM1ohp8PAl-97" value="" style="whiteSpace=wrap;html=1;aspect=fixed;strokeColor=#82b366;fillColor=#d5e8d4;" parent="1" vertex="1">
          <mxGeometry x="830" y="720" width="10" height="10" as="geometry" />
        </mxCell>
        <mxCell id="jE244axQyTbM1ohp8PAl-104" value="" style="whiteSpace=wrap;html=1;aspect=fixed;strokeColor=#82b366;fillColor=#d5e8d4;" parent="1" vertex="1">
          <mxGeometry x="780" y="730" width="10" height="10" as="geometry" />
        </mxCell>
        <mxCell id="jE244axQyTbM1ohp8PAl-105" value="" style="whiteSpace=wrap;html=1;aspect=fixed;strokeColor=#82b366;fillColor=#d5e8d4;" parent="1" vertex="1">
          <mxGeometry x="790" y="730" width="10" height="10" as="geometry" />
        </mxCell>
        <mxCell id="jE244axQyTbM1ohp8PAl-106" value="" style="whiteSpace=wrap;html=1;aspect=fixed;strokeColor=#82b366;fillColor=#d5e8d4;" parent="1" vertex="1">
          <mxGeometry x="800" y="730" width="10" height="10" as="geometry" />
        </mxCell>
        <mxCell id="jE244axQyTbM1ohp8PAl-107" value="" style="whiteSpace=wrap;html=1;aspect=fixed;strokeColor=#d79b00;fillColor=#ffe6cc;" parent="1" vertex="1">
          <mxGeometry x="810" y="730" width="10" height="10" as="geometry" />
        </mxCell>
        <mxCell id="jE244axQyTbM1ohp8PAl-108" value="" style="whiteSpace=wrap;html=1;aspect=fixed;strokeColor=#82b366;fillColor=#d5e8d4;" parent="1" vertex="1">
          <mxGeometry x="820" y="730" width="10" height="10" as="geometry" />
        </mxCell>
        <mxCell id="jE244axQyTbM1ohp8PAl-109" value="" style="whiteSpace=wrap;html=1;aspect=fixed;strokeColor=#82b366;fillColor=#d5e8d4;" parent="1" vertex="1">
          <mxGeometry x="830" y="730" width="10" height="10" as="geometry" />
        </mxCell>
        <mxCell id="jE244axQyTbM1ohp8PAl-116" value="" style="whiteSpace=wrap;html=1;aspect=fixed;strokeColor=#82b366;fillColor=#d5e8d4;" parent="1" vertex="1">
          <mxGeometry x="780" y="740" width="10" height="10" as="geometry" />
        </mxCell>
        <mxCell id="jE244axQyTbM1ohp8PAl-117" value="" style="whiteSpace=wrap;html=1;aspect=fixed;strokeColor=#82b366;fillColor=#d5e8d4;" parent="1" vertex="1">
          <mxGeometry x="790" y="740" width="10" height="10" as="geometry" />
        </mxCell>
        <mxCell id="jE244axQyTbM1ohp8PAl-118" value="" style="whiteSpace=wrap;html=1;aspect=fixed;strokeColor=#d79b00;fillColor=#ffe6cc;" parent="1" vertex="1">
          <mxGeometry x="800" y="740" width="10" height="10" as="geometry" />
        </mxCell>
        <mxCell id="jE244axQyTbM1ohp8PAl-119" value="" style="whiteSpace=wrap;html=1;aspect=fixed;strokeColor=#d79b00;fillColor=#ffe6cc;" parent="1" vertex="1">
          <mxGeometry x="810" y="740" width="10" height="10" as="geometry" />
        </mxCell>
        <mxCell id="jE244axQyTbM1ohp8PAl-120" value="" style="whiteSpace=wrap;html=1;aspect=fixed;strokeColor=#d79b00;fillColor=#ffe6cc;" parent="1" vertex="1">
          <mxGeometry x="820" y="740" width="10" height="10" as="geometry" />
        </mxCell>
        <mxCell id="jE244axQyTbM1ohp8PAl-121" value="" style="whiteSpace=wrap;html=1;aspect=fixed;strokeColor=#82b366;fillColor=#d5e8d4;" parent="1" vertex="1">
          <mxGeometry x="830" y="740" width="10" height="10" as="geometry" />
        </mxCell>
        <mxCell id="jE244axQyTbM1ohp8PAl-128" value="" style="whiteSpace=wrap;html=1;aspect=fixed;strokeColor=#82b366;fillColor=#d5e8d4;" parent="1" vertex="1">
          <mxGeometry x="780" y="750" width="10" height="10" as="geometry" />
        </mxCell>
        <mxCell id="jE244axQyTbM1ohp8PAl-129" value="" style="whiteSpace=wrap;html=1;aspect=fixed;strokeColor=#82b366;fillColor=#d5e8d4;" parent="1" vertex="1">
          <mxGeometry x="790" y="750" width="10" height="10" as="geometry" />
        </mxCell>
        <mxCell id="jE244axQyTbM1ohp8PAl-130" value="" style="whiteSpace=wrap;html=1;aspect=fixed;strokeColor=#82b366;fillColor=#d5e8d4;" parent="1" vertex="1">
          <mxGeometry x="800" y="750" width="10" height="10" as="geometry" />
        </mxCell>
        <mxCell id="jE244axQyTbM1ohp8PAl-131" value="" style="whiteSpace=wrap;html=1;aspect=fixed;strokeColor=#d79b00;fillColor=#ffe6cc;" parent="1" vertex="1">
          <mxGeometry x="810" y="750" width="10" height="10" as="geometry" />
        </mxCell>
        <mxCell id="jE244axQyTbM1ohp8PAl-132" value="" style="whiteSpace=wrap;html=1;aspect=fixed;strokeColor=#82b366;fillColor=#d5e8d4;" parent="1" vertex="1">
          <mxGeometry x="820" y="750" width="10" height="10" as="geometry" />
        </mxCell>
        <mxCell id="jE244axQyTbM1ohp8PAl-133" value="" style="whiteSpace=wrap;html=1;aspect=fixed;strokeColor=#82b366;fillColor=#d5e8d4;" parent="1" vertex="1">
          <mxGeometry x="830" y="750" width="10" height="10" as="geometry" />
        </mxCell>
        <mxCell id="jE244axQyTbM1ohp8PAl-140" value="" style="whiteSpace=wrap;html=1;aspect=fixed;strokeColor=#82b366;fillColor=#d5e8d4;" parent="1" vertex="1">
          <mxGeometry x="780" y="760" width="10" height="10" as="geometry" />
        </mxCell>
        <mxCell id="jE244axQyTbM1ohp8PAl-141" value="" style="whiteSpace=wrap;html=1;aspect=fixed;strokeColor=#82b366;fillColor=#d5e8d4;" parent="1" vertex="1">
          <mxGeometry x="790" y="760" width="10" height="10" as="geometry" />
        </mxCell>
        <mxCell id="jE244axQyTbM1ohp8PAl-142" value="" style="whiteSpace=wrap;html=1;aspect=fixed;strokeColor=#82b366;fillColor=#d5e8d4;" parent="1" vertex="1">
          <mxGeometry x="800" y="760" width="10" height="10" as="geometry" />
        </mxCell>
        <mxCell id="jE244axQyTbM1ohp8PAl-143" value="" style="whiteSpace=wrap;html=1;aspect=fixed;strokeColor=#82b366;fillColor=#d5e8d4;" parent="1" vertex="1">
          <mxGeometry x="810" y="760" width="10" height="10" as="geometry" />
        </mxCell>
        <mxCell id="jE244axQyTbM1ohp8PAl-144" value="" style="whiteSpace=wrap;html=1;aspect=fixed;strokeColor=#82b366;fillColor=#d5e8d4;" parent="1" vertex="1">
          <mxGeometry x="820" y="760" width="10" height="10" as="geometry" />
        </mxCell>
        <mxCell id="jE244axQyTbM1ohp8PAl-145" value="" style="whiteSpace=wrap;html=1;aspect=fixed;strokeColor=#82b366;fillColor=#d5e8d4;" parent="1" vertex="1">
          <mxGeometry x="830" y="760" width="10" height="10" as="geometry" />
        </mxCell>
        <mxCell id="jE244axQyTbM1ohp8PAl-152" value="" style="whiteSpace=wrap;html=1;aspect=fixed;strokeColor=#82b366;fillColor=#d5e8d4;" parent="1" vertex="1">
          <mxGeometry x="780" y="770" width="10" height="10" as="geometry" />
        </mxCell>
        <mxCell id="jE244axQyTbM1ohp8PAl-153" value="" style="whiteSpace=wrap;html=1;aspect=fixed;strokeColor=#82b366;fillColor=#d5e8d4;" parent="1" vertex="1">
          <mxGeometry x="790" y="770" width="10" height="10" as="geometry" />
        </mxCell>
        <mxCell id="jE244axQyTbM1ohp8PAl-154" value="" style="whiteSpace=wrap;html=1;aspect=fixed;strokeColor=#82b366;fillColor=#d5e8d4;" parent="1" vertex="1">
          <mxGeometry x="800" y="770" width="10" height="10" as="geometry" />
        </mxCell>
        <mxCell id="jE244axQyTbM1ohp8PAl-155" value="" style="whiteSpace=wrap;html=1;aspect=fixed;strokeColor=#82b366;fillColor=#d5e8d4;" parent="1" vertex="1">
          <mxGeometry x="810" y="770" width="10" height="10" as="geometry" />
        </mxCell>
        <mxCell id="jE244axQyTbM1ohp8PAl-156" value="" style="whiteSpace=wrap;html=1;aspect=fixed;strokeColor=#82b366;fillColor=#d5e8d4;" parent="1" vertex="1">
          <mxGeometry x="820" y="770" width="10" height="10" as="geometry" />
        </mxCell>
        <mxCell id="jE244axQyTbM1ohp8PAl-157" value="" style="whiteSpace=wrap;html=1;aspect=fixed;strokeColor=#666666;fillColor=#f5f5f5;fontColor=#333333;" parent="1" vertex="1">
          <mxGeometry x="830" y="770" width="10" height="10" as="geometry" />
        </mxCell>
        <mxCell id="jE244axQyTbM1ohp8PAl-158" value="" style="whiteSpace=wrap;html=1;aspect=fixed;strokeColor=#d6b656;fillColor=#fff2cc;" parent="1" vertex="1">
          <mxGeometry x="720" y="780" width="10" height="10" as="geometry" />
        </mxCell>
        <mxCell id="jE244axQyTbM1ohp8PAl-159" value="" style="whiteSpace=wrap;html=1;aspect=fixed;strokeColor=#d6b656;fillColor=#fff2cc;" parent="1" vertex="1">
          <mxGeometry x="730" y="780" width="10" height="10" as="geometry" />
        </mxCell>
        <mxCell id="jE244axQyTbM1ohp8PAl-160" value="" style="whiteSpace=wrap;html=1;aspect=fixed;strokeColor=#82b366;fillColor=#d5e8d4;" parent="1" vertex="1">
          <mxGeometry x="740" y="780" width="10" height="10" as="geometry" />
        </mxCell>
        <mxCell id="jE244axQyTbM1ohp8PAl-161" value="" style="whiteSpace=wrap;html=1;aspect=fixed;strokeColor=#82b366;fillColor=#d5e8d4;" parent="1" vertex="1">
          <mxGeometry x="750" y="780" width="10" height="10" as="geometry" />
        </mxCell>
        <mxCell id="jE244axQyTbM1ohp8PAl-162" value="" style="whiteSpace=wrap;html=1;aspect=fixed;strokeColor=#82b366;fillColor=#d5e8d4;" parent="1" vertex="1">
          <mxGeometry x="760" y="780" width="10" height="10" as="geometry" />
        </mxCell>
        <mxCell id="jE244axQyTbM1ohp8PAl-163" value="" style="whiteSpace=wrap;html=1;aspect=fixed;strokeColor=#82b366;fillColor=#d5e8d4;" parent="1" vertex="1">
          <mxGeometry x="770" y="780" width="10" height="10" as="geometry" />
        </mxCell>
        <mxCell id="jE244axQyTbM1ohp8PAl-164" value="" style="whiteSpace=wrap;html=1;aspect=fixed;strokeColor=#82b366;fillColor=#d5e8d4;" parent="1" vertex="1">
          <mxGeometry x="780" y="780" width="10" height="10" as="geometry" />
        </mxCell>
        <mxCell id="jE244axQyTbM1ohp8PAl-165" value="" style="whiteSpace=wrap;html=1;aspect=fixed;strokeColor=#82b366;fillColor=#d5e8d4;" parent="1" vertex="1">
          <mxGeometry x="790" y="780" width="10" height="10" as="geometry" />
        </mxCell>
        <mxCell id="jE244axQyTbM1ohp8PAl-166" value="" style="whiteSpace=wrap;html=1;aspect=fixed;strokeColor=#82b366;fillColor=#d5e8d4;" parent="1" vertex="1">
          <mxGeometry x="800" y="780" width="10" height="10" as="geometry" />
        </mxCell>
        <mxCell id="jE244axQyTbM1ohp8PAl-167" value="" style="whiteSpace=wrap;html=1;aspect=fixed;strokeColor=#82b366;fillColor=#d5e8d4;" parent="1" vertex="1">
          <mxGeometry x="810" y="780" width="10" height="10" as="geometry" />
        </mxCell>
        <mxCell id="jE244axQyTbM1ohp8PAl-168" value="" style="whiteSpace=wrap;html=1;aspect=fixed;strokeColor=#666666;fillColor=#f5f5f5;fontColor=#333333;" parent="1" vertex="1">
          <mxGeometry x="820" y="780" width="10" height="10" as="geometry" />
        </mxCell>
        <mxCell id="jE244axQyTbM1ohp8PAl-169" value="" style="whiteSpace=wrap;html=1;aspect=fixed;strokeColor=#666666;fillColor=#f5f5f5;fontColor=#333333;" parent="1" vertex="1">
          <mxGeometry x="830" y="780" width="10" height="10" as="geometry" />
        </mxCell>
        <mxCell id="jE244axQyTbM1ohp8PAl-170" value="" style="whiteSpace=wrap;html=1;aspect=fixed;strokeColor=#82b366;fillColor=#d5e8d4;" parent="1" vertex="1">
          <mxGeometry x="720" y="790" width="10" height="10" as="geometry" />
        </mxCell>
        <mxCell id="jE244axQyTbM1ohp8PAl-171" value="" style="whiteSpace=wrap;html=1;aspect=fixed;strokeColor=#82b366;fillColor=#d5e8d4;" parent="1" vertex="1">
          <mxGeometry x="730" y="790" width="10" height="10" as="geometry" />
        </mxCell>
        <mxCell id="jE244axQyTbM1ohp8PAl-172" value="" style="whiteSpace=wrap;html=1;aspect=fixed;strokeColor=#82b366;fillColor=#d5e8d4;" parent="1" vertex="1">
          <mxGeometry x="740" y="790" width="10" height="10" as="geometry" />
        </mxCell>
        <mxCell id="jE244axQyTbM1ohp8PAl-173" value="" style="whiteSpace=wrap;html=1;aspect=fixed;strokeColor=#82b366;fillColor=#d5e8d4;" parent="1" vertex="1">
          <mxGeometry x="750" y="790" width="10" height="10" as="geometry" />
        </mxCell>
        <mxCell id="jE244axQyTbM1ohp8PAl-174" value="" style="whiteSpace=wrap;html=1;aspect=fixed;strokeColor=#82b366;fillColor=#d5e8d4;" parent="1" vertex="1">
          <mxGeometry x="760" y="790" width="10" height="10" as="geometry" />
        </mxCell>
        <mxCell id="jE244axQyTbM1ohp8PAl-175" value="" style="whiteSpace=wrap;html=1;aspect=fixed;strokeColor=#82b366;fillColor=#d5e8d4;" parent="1" vertex="1">
          <mxGeometry x="770" y="790" width="10" height="10" as="geometry" />
        </mxCell>
        <mxCell id="jE244axQyTbM1ohp8PAl-176" value="" style="whiteSpace=wrap;html=1;aspect=fixed;strokeColor=#82b366;fillColor=#d5e8d4;" parent="1" vertex="1">
          <mxGeometry x="780" y="790" width="10" height="10" as="geometry" />
        </mxCell>
        <mxCell id="jE244axQyTbM1ohp8PAl-177" value="" style="whiteSpace=wrap;html=1;aspect=fixed;strokeColor=#82b366;fillColor=#d5e8d4;" parent="1" vertex="1">
          <mxGeometry x="790" y="790" width="10" height="10" as="geometry" />
        </mxCell>
        <mxCell id="jE244axQyTbM1ohp8PAl-178" value="" style="whiteSpace=wrap;html=1;aspect=fixed;strokeColor=#82b366;fillColor=#d5e8d4;" parent="1" vertex="1">
          <mxGeometry x="800" y="790" width="10" height="10" as="geometry" />
        </mxCell>
        <mxCell id="jE244axQyTbM1ohp8PAl-179" value="" style="whiteSpace=wrap;html=1;aspect=fixed;strokeColor=#666666;fillColor=#f5f5f5;fontColor=#333333;" parent="1" vertex="1">
          <mxGeometry x="810" y="790" width="10" height="10" as="geometry" />
        </mxCell>
        <mxCell id="jE244axQyTbM1ohp8PAl-180" value="" style="whiteSpace=wrap;html=1;aspect=fixed;strokeColor=#666666;fillColor=#f5f5f5;fontColor=#333333;" parent="1" vertex="1">
          <mxGeometry x="820" y="790" width="10" height="10" as="geometry" />
        </mxCell>
        <mxCell id="jE244axQyTbM1ohp8PAl-181" value="" style="whiteSpace=wrap;html=1;aspect=fixed;strokeColor=#666666;fillColor=#f5f5f5;fontColor=#333333;" parent="1" vertex="1">
          <mxGeometry x="830" y="790" width="10" height="10" as="geometry" />
        </mxCell>
        <mxCell id="jE244axQyTbM1ohp8PAl-182" value="" style="whiteSpace=wrap;html=1;aspect=fixed;strokeColor=#666666;fillColor=#f5f5f5;fontColor=#333333;" parent="1" vertex="1">
          <mxGeometry x="720" y="800" width="10" height="10" as="geometry" />
        </mxCell>
        <mxCell id="jE244axQyTbM1ohp8PAl-183" value="" style="whiteSpace=wrap;html=1;aspect=fixed;strokeColor=#9673a6;fillColor=#e1d5e7;" parent="1" vertex="1">
          <mxGeometry x="730" y="800" width="10" height="10" as="geometry" />
        </mxCell>
        <mxCell id="jE244axQyTbM1ohp8PAl-184" value="" style="whiteSpace=wrap;html=1;aspect=fixed;strokeColor=#9673a6;fillColor=#e1d5e7;" parent="1" vertex="1">
          <mxGeometry x="740" y="800" width="10" height="10" as="geometry" />
        </mxCell>
        <mxCell id="jE244axQyTbM1ohp8PAl-185" value="" style="whiteSpace=wrap;html=1;aspect=fixed;strokeColor=#82b366;fillColor=#d5e8d4;" parent="1" vertex="1">
          <mxGeometry x="750" y="800" width="10" height="10" as="geometry" />
        </mxCell>
        <mxCell id="jE244axQyTbM1ohp8PAl-186" value="" style="whiteSpace=wrap;html=1;aspect=fixed;strokeColor=#82b366;fillColor=#d5e8d4;" parent="1" vertex="1">
          <mxGeometry x="760" y="800" width="10" height="10" as="geometry" />
        </mxCell>
        <mxCell id="jE244axQyTbM1ohp8PAl-187" value="" style="whiteSpace=wrap;html=1;aspect=fixed;strokeColor=#82b366;fillColor=#d5e8d4;" parent="1" vertex="1">
          <mxGeometry x="770" y="800" width="10" height="10" as="geometry" />
        </mxCell>
        <mxCell id="jE244axQyTbM1ohp8PAl-188" value="" style="whiteSpace=wrap;html=1;aspect=fixed;strokeColor=#82b366;fillColor=#d5e8d4;" parent="1" vertex="1">
          <mxGeometry x="780" y="800" width="10" height="10" as="geometry" />
        </mxCell>
        <mxCell id="jE244axQyTbM1ohp8PAl-189" value="" style="whiteSpace=wrap;html=1;aspect=fixed;strokeColor=#82b366;fillColor=#d5e8d4;" parent="1" vertex="1">
          <mxGeometry x="790" y="800" width="10" height="10" as="geometry" />
        </mxCell>
        <mxCell id="jE244axQyTbM1ohp8PAl-190" value="" style="whiteSpace=wrap;html=1;aspect=fixed;strokeColor=#82b366;fillColor=#d5e8d4;" parent="1" vertex="1">
          <mxGeometry x="800" y="800" width="10" height="10" as="geometry" />
        </mxCell>
        <mxCell id="jE244axQyTbM1ohp8PAl-191" value="" style="whiteSpace=wrap;html=1;aspect=fixed;strokeColor=#82b366;fillColor=#d5e8d4;" parent="1" vertex="1">
          <mxGeometry x="810" y="800" width="10" height="10" as="geometry" />
        </mxCell>
        <mxCell id="jE244axQyTbM1ohp8PAl-192" value="" style="whiteSpace=wrap;html=1;aspect=fixed;strokeColor=#666666;fillColor=#f5f5f5;fontColor=#333333;" parent="1" vertex="1">
          <mxGeometry x="820" y="800" width="10" height="10" as="geometry" />
        </mxCell>
        <mxCell id="jE244axQyTbM1ohp8PAl-193" value="" style="whiteSpace=wrap;html=1;aspect=fixed;strokeColor=#666666;fillColor=#f5f5f5;fontColor=#333333;" parent="1" vertex="1">
          <mxGeometry x="830" y="800" width="10" height="10" as="geometry" />
        </mxCell>
        <mxCell id="jE244axQyTbM1ohp8PAl-194" value="" style="whiteSpace=wrap;html=1;aspect=fixed;strokeColor=#666666;fillColor=#f5f5f5;fontColor=#333333;" parent="1" vertex="1">
          <mxGeometry x="720" y="810" width="10" height="10" as="geometry" />
        </mxCell>
        <mxCell id="jE244axQyTbM1ohp8PAl-195" value="" style="whiteSpace=wrap;html=1;aspect=fixed;strokeColor=#666666;fillColor=#f5f5f5;fontColor=#333333;" parent="1" vertex="1">
          <mxGeometry x="730" y="810" width="10" height="10" as="geometry" />
        </mxCell>
        <mxCell id="jE244axQyTbM1ohp8PAl-196" value="" style="whiteSpace=wrap;html=1;aspect=fixed;strokeColor=#9673a6;fillColor=#e1d5e7;" parent="1" vertex="1">
          <mxGeometry x="740" y="810" width="10" height="10" as="geometry" />
        </mxCell>
        <mxCell id="jE244axQyTbM1ohp8PAl-197" value="" style="whiteSpace=wrap;html=1;aspect=fixed;strokeColor=#9673a6;fillColor=#e1d5e7;" parent="1" vertex="1">
          <mxGeometry x="750" y="810" width="10" height="10" as="geometry" />
        </mxCell>
        <mxCell id="jE244axQyTbM1ohp8PAl-198" value="" style="whiteSpace=wrap;html=1;aspect=fixed;strokeColor=#82b366;fillColor=#d5e8d4;" parent="1" vertex="1">
          <mxGeometry x="760" y="810" width="10" height="10" as="geometry" />
        </mxCell>
        <mxCell id="jE244axQyTbM1ohp8PAl-199" value="" style="whiteSpace=wrap;html=1;aspect=fixed;strokeColor=#82b366;fillColor=#d5e8d4;" parent="1" vertex="1">
          <mxGeometry x="770" y="810" width="10" height="10" as="geometry" />
        </mxCell>
        <mxCell id="jE244axQyTbM1ohp8PAl-200" value="" style="whiteSpace=wrap;html=1;aspect=fixed;strokeColor=#82b366;fillColor=#d5e8d4;" parent="1" vertex="1">
          <mxGeometry x="780" y="810" width="10" height="10" as="geometry" />
        </mxCell>
        <mxCell id="jE244axQyTbM1ohp8PAl-201" value="" style="whiteSpace=wrap;html=1;aspect=fixed;strokeColor=#82b366;fillColor=#d5e8d4;" parent="1" vertex="1">
          <mxGeometry x="790" y="810" width="10" height="10" as="geometry" />
        </mxCell>
        <mxCell id="jE244axQyTbM1ohp8PAl-202" value="" style="whiteSpace=wrap;html=1;aspect=fixed;strokeColor=#82b366;fillColor=#d5e8d4;" parent="1" vertex="1">
          <mxGeometry x="800" y="810" width="10" height="10" as="geometry" />
        </mxCell>
        <mxCell id="jE244axQyTbM1ohp8PAl-203" value="" style="whiteSpace=wrap;html=1;aspect=fixed;strokeColor=#82b366;fillColor=#d5e8d4;" parent="1" vertex="1">
          <mxGeometry x="810" y="810" width="10" height="10" as="geometry" />
        </mxCell>
        <mxCell id="jE244axQyTbM1ohp8PAl-204" value="" style="whiteSpace=wrap;html=1;aspect=fixed;strokeColor=#666666;fillColor=#f5f5f5;fontColor=#333333;" parent="1" vertex="1">
          <mxGeometry x="820" y="810" width="10" height="10" as="geometry" />
        </mxCell>
        <mxCell id="jE244axQyTbM1ohp8PAl-205" value="" style="whiteSpace=wrap;html=1;aspect=fixed;strokeColor=#666666;fillColor=#f5f5f5;fontColor=#333333;" parent="1" vertex="1">
          <mxGeometry x="830" y="810" width="10" height="10" as="geometry" />
        </mxCell>
        <mxCell id="jE244axQyTbM1ohp8PAl-206" value="" style="whiteSpace=wrap;html=1;aspect=fixed;strokeColor=#666666;fillColor=#f5f5f5;fontColor=#333333;" parent="1" vertex="1">
          <mxGeometry x="720" y="820" width="10" height="10" as="geometry" />
        </mxCell>
        <mxCell id="jE244axQyTbM1ohp8PAl-207" value="" style="whiteSpace=wrap;html=1;aspect=fixed;strokeColor=#666666;fillColor=#f5f5f5;fontColor=#333333;" parent="1" vertex="1">
          <mxGeometry x="730" y="820" width="10" height="10" as="geometry" />
        </mxCell>
        <mxCell id="jE244axQyTbM1ohp8PAl-208" value="" style="whiteSpace=wrap;html=1;aspect=fixed;strokeColor=#666666;fillColor=#f5f5f5;fontColor=#333333;" parent="1" vertex="1">
          <mxGeometry x="740" y="820" width="10" height="10" as="geometry" />
        </mxCell>
        <mxCell id="jE244axQyTbM1ohp8PAl-209" value="" style="whiteSpace=wrap;html=1;aspect=fixed;strokeColor=#666666;fillColor=#f5f5f5;fontColor=#333333;" parent="1" vertex="1">
          <mxGeometry x="750" y="820" width="10" height="10" as="geometry" />
        </mxCell>
        <mxCell id="jE244axQyTbM1ohp8PAl-210" value="" style="whiteSpace=wrap;html=1;aspect=fixed;strokeColor=#9673a6;fillColor=#e1d5e7;" parent="1" vertex="1">
          <mxGeometry x="760" y="820" width="10" height="10" as="geometry" />
        </mxCell>
        <mxCell id="jE244axQyTbM1ohp8PAl-211" value="" style="whiteSpace=wrap;html=1;aspect=fixed;strokeColor=#9673a6;fillColor=#e1d5e7;" parent="1" vertex="1">
          <mxGeometry x="770" y="820" width="10" height="10" as="geometry" />
        </mxCell>
        <mxCell id="jE244axQyTbM1ohp8PAl-212" value="" style="whiteSpace=wrap;html=1;aspect=fixed;strokeColor=#82b366;fillColor=#d5e8d4;" parent="1" vertex="1">
          <mxGeometry x="780" y="820" width="10" height="10" as="geometry" />
        </mxCell>
        <mxCell id="jE244axQyTbM1ohp8PAl-213" value="" style="whiteSpace=wrap;html=1;aspect=fixed;strokeColor=#82b366;fillColor=#d5e8d4;" parent="1" vertex="1">
          <mxGeometry x="790" y="820" width="10" height="10" as="geometry" />
        </mxCell>
        <mxCell id="jE244axQyTbM1ohp8PAl-214" value="" style="whiteSpace=wrap;html=1;aspect=fixed;strokeColor=#82b366;fillColor=#d5e8d4;" parent="1" vertex="1">
          <mxGeometry x="800" y="820" width="10" height="10" as="geometry" />
        </mxCell>
        <mxCell id="jE244axQyTbM1ohp8PAl-215" value="" style="whiteSpace=wrap;html=1;aspect=fixed;strokeColor=#82b366;fillColor=#d5e8d4;" parent="1" vertex="1">
          <mxGeometry x="810" y="820" width="10" height="10" as="geometry" />
        </mxCell>
        <mxCell id="jE244axQyTbM1ohp8PAl-216" value="" style="whiteSpace=wrap;html=1;aspect=fixed;strokeColor=#82b366;fillColor=#d5e8d4;" parent="1" vertex="1">
          <mxGeometry x="820" y="820" width="10" height="10" as="geometry" />
        </mxCell>
        <mxCell id="jE244axQyTbM1ohp8PAl-217" value="" style="whiteSpace=wrap;html=1;aspect=fixed;strokeColor=#666666;fillColor=#f5f5f5;fontColor=#333333;" parent="1" vertex="1">
          <mxGeometry x="830" y="820" width="10" height="10" as="geometry" />
        </mxCell>
        <mxCell id="jE244axQyTbM1ohp8PAl-218" value="" style="whiteSpace=wrap;html=1;aspect=fixed;strokeColor=#666666;fillColor=#f5f5f5;fontColor=#333333;" parent="1" vertex="1">
          <mxGeometry x="720" y="830" width="10" height="10" as="geometry" />
        </mxCell>
        <mxCell id="jE244axQyTbM1ohp8PAl-219" value="" style="whiteSpace=wrap;html=1;aspect=fixed;strokeColor=#666666;fillColor=#f5f5f5;fontColor=#333333;" parent="1" vertex="1">
          <mxGeometry x="730" y="830" width="10" height="10" as="geometry" />
        </mxCell>
        <mxCell id="jE244axQyTbM1ohp8PAl-220" value="" style="whiteSpace=wrap;html=1;aspect=fixed;strokeColor=#666666;fillColor=#f5f5f5;fontColor=#333333;" parent="1" vertex="1">
          <mxGeometry x="740" y="830" width="10" height="10" as="geometry" />
        </mxCell>
        <mxCell id="jE244axQyTbM1ohp8PAl-221" value="" style="whiteSpace=wrap;html=1;aspect=fixed;strokeColor=#666666;fillColor=#f5f5f5;fontColor=#333333;" parent="1" vertex="1">
          <mxGeometry x="750" y="830" width="10" height="10" as="geometry" />
        </mxCell>
        <mxCell id="jE244axQyTbM1ohp8PAl-222" value="" style="whiteSpace=wrap;html=1;aspect=fixed;strokeColor=#666666;fillColor=#f5f5f5;fontColor=#333333;" parent="1" vertex="1">
          <mxGeometry x="760" y="830" width="10" height="10" as="geometry" />
        </mxCell>
        <mxCell id="jE244axQyTbM1ohp8PAl-223" value="" style="whiteSpace=wrap;html=1;aspect=fixed;strokeColor=#666666;fillColor=#f5f5f5;fontColor=#333333;" parent="1" vertex="1">
          <mxGeometry x="770" y="830" width="10" height="10" as="geometry" />
        </mxCell>
        <mxCell id="jE244axQyTbM1ohp8PAl-224" value="" style="whiteSpace=wrap;html=1;aspect=fixed;strokeColor=#9673a6;fillColor=#e1d5e7;" parent="1" vertex="1">
          <mxGeometry x="780" y="830" width="10" height="10" as="geometry" />
        </mxCell>
        <mxCell id="jE244axQyTbM1ohp8PAl-225" value="" style="whiteSpace=wrap;html=1;aspect=fixed;strokeColor=#82b366;fillColor=#d5e8d4;" parent="1" vertex="1">
          <mxGeometry x="790" y="830" width="10" height="10" as="geometry" />
        </mxCell>
        <mxCell id="jE244axQyTbM1ohp8PAl-226" value="" style="whiteSpace=wrap;html=1;aspect=fixed;strokeColor=#82b366;fillColor=#d5e8d4;" parent="1" vertex="1">
          <mxGeometry x="800" y="830" width="10" height="10" as="geometry" />
        </mxCell>
        <mxCell id="jE244axQyTbM1ohp8PAl-227" value="" style="whiteSpace=wrap;html=1;aspect=fixed;strokeColor=#82b366;fillColor=#d5e8d4;" parent="1" vertex="1">
          <mxGeometry x="810" y="830" width="10" height="10" as="geometry" />
        </mxCell>
        <mxCell id="jE244axQyTbM1ohp8PAl-228" value="" style="whiteSpace=wrap;html=1;aspect=fixed;strokeColor=#82b366;fillColor=#d5e8d4;" parent="1" vertex="1">
          <mxGeometry x="820" y="830" width="10" height="10" as="geometry" />
        </mxCell>
        <mxCell id="jE244axQyTbM1ohp8PAl-229" value="" style="whiteSpace=wrap;html=1;aspect=fixed;strokeColor=#82b366;fillColor=#d5e8d4;" parent="1" vertex="1">
          <mxGeometry x="830" y="830" width="10" height="10" as="geometry" />
        </mxCell>
        <mxCell id="jE244axQyTbM1ohp8PAl-259" value="" style="whiteSpace=wrap;html=1;aspect=fixed;strokeColor=#6c8ebf;fillColor=#dae8fc;" parent="1" vertex="1">
          <mxGeometry x="720" y="720" width="10" height="10" as="geometry" />
        </mxCell>
        <mxCell id="jE244axQyTbM1ohp8PAl-260" value="" style="whiteSpace=wrap;html=1;aspect=fixed;strokeColor=#6c8ebf;fillColor=#dae8fc;" parent="1" vertex="1">
          <mxGeometry x="730" y="720" width="10" height="10" as="geometry" />
        </mxCell>
        <mxCell id="jE244axQyTbM1ohp8PAl-261" value="" style="whiteSpace=wrap;html=1;aspect=fixed;strokeColor=#d6b656;fillColor=#fff2cc;" parent="1" vertex="1">
          <mxGeometry x="740" y="720" width="10" height="10" as="geometry" />
        </mxCell>
        <mxCell id="jE244axQyTbM1ohp8PAl-262" value="" style="whiteSpace=wrap;html=1;aspect=fixed;strokeColor=#d6b656;fillColor=#fff2cc;" parent="1" vertex="1">
          <mxGeometry x="750" y="720" width="10" height="10" as="geometry" />
        </mxCell>
        <mxCell id="jE244axQyTbM1ohp8PAl-263" value="" style="whiteSpace=wrap;html=1;aspect=fixed;strokeColor=#d6b656;fillColor=#fff2cc;" parent="1" vertex="1">
          <mxGeometry x="760" y="720" width="10" height="10" as="geometry" />
        </mxCell>
        <mxCell id="jE244axQyTbM1ohp8PAl-264" value="" style="whiteSpace=wrap;html=1;aspect=fixed;strokeColor=#82b366;fillColor=#d5e8d4;" parent="1" vertex="1">
          <mxGeometry x="770" y="720" width="10" height="10" as="geometry" />
        </mxCell>
        <mxCell id="jE244axQyTbM1ohp8PAl-265" value="" style="whiteSpace=wrap;html=1;aspect=fixed;strokeColor=#6c8ebf;fillColor=#dae8fc;" parent="1" vertex="1">
          <mxGeometry x="720" y="730" width="10" height="10" as="geometry" />
        </mxCell>
        <mxCell id="jE244axQyTbM1ohp8PAl-266" value="" style="whiteSpace=wrap;html=1;aspect=fixed;strokeColor=#6c8ebf;fillColor=#dae8fc;" parent="1" vertex="1">
          <mxGeometry x="730" y="730" width="10" height="10" as="geometry" />
        </mxCell>
        <mxCell id="jE244axQyTbM1ohp8PAl-267" value="" style="whiteSpace=wrap;html=1;aspect=fixed;strokeColor=#6c8ebf;fillColor=#dae8fc;" parent="1" vertex="1">
          <mxGeometry x="740" y="730" width="10" height="10" as="geometry" />
        </mxCell>
        <mxCell id="jE244axQyTbM1ohp8PAl-268" value="" style="whiteSpace=wrap;html=1;aspect=fixed;strokeColor=#d6b656;fillColor=#fff2cc;" parent="1" vertex="1">
          <mxGeometry x="750" y="730" width="10" height="10" as="geometry" />
        </mxCell>
        <mxCell id="jE244axQyTbM1ohp8PAl-269" value="" style="whiteSpace=wrap;html=1;aspect=fixed;strokeColor=#d6b656;fillColor=#fff2cc;" parent="1" vertex="1">
          <mxGeometry x="760" y="730" width="10" height="10" as="geometry" />
        </mxCell>
        <mxCell id="jE244axQyTbM1ohp8PAl-270" value="" style="whiteSpace=wrap;html=1;aspect=fixed;strokeColor=#d6b656;fillColor=#fff2cc;" parent="1" vertex="1">
          <mxGeometry x="770" y="730" width="10" height="10" as="geometry" />
        </mxCell>
        <mxCell id="jE244axQyTbM1ohp8PAl-271" value="" style="whiteSpace=wrap;html=1;aspect=fixed;strokeColor=#6c8ebf;fillColor=#dae8fc;" parent="1" vertex="1">
          <mxGeometry x="720" y="740" width="10" height="10" as="geometry" />
        </mxCell>
        <mxCell id="jE244axQyTbM1ohp8PAl-272" value="" style="whiteSpace=wrap;html=1;aspect=fixed;strokeColor=#6c8ebf;fillColor=#dae8fc;" parent="1" vertex="1">
          <mxGeometry x="730" y="740" width="10" height="10" as="geometry" />
        </mxCell>
        <mxCell id="jE244axQyTbM1ohp8PAl-273" value="" style="whiteSpace=wrap;html=1;aspect=fixed;strokeColor=#6c8ebf;fillColor=#dae8fc;" parent="1" vertex="1">
          <mxGeometry x="740" y="740" width="10" height="10" as="geometry" />
        </mxCell>
        <mxCell id="jE244axQyTbM1ohp8PAl-274" value="" style="whiteSpace=wrap;html=1;aspect=fixed;strokeColor=#6c8ebf;fillColor=#dae8fc;" parent="1" vertex="1">
          <mxGeometry x="750" y="740" width="10" height="10" as="geometry" />
        </mxCell>
        <mxCell id="jE244axQyTbM1ohp8PAl-275" value="" style="whiteSpace=wrap;html=1;aspect=fixed;strokeColor=#d6b656;fillColor=#fff2cc;" parent="1" vertex="1">
          <mxGeometry x="760" y="740" width="10" height="10" as="geometry" />
        </mxCell>
        <mxCell id="jE244axQyTbM1ohp8PAl-276" value="" style="whiteSpace=wrap;html=1;aspect=fixed;strokeColor=#d6b656;fillColor=#fff2cc;" parent="1" vertex="1">
          <mxGeometry x="770" y="740" width="10" height="10" as="geometry" />
        </mxCell>
        <mxCell id="jE244axQyTbM1ohp8PAl-277" value="" style="whiteSpace=wrap;html=1;aspect=fixed;strokeColor=#6c8ebf;fillColor=#dae8fc;" parent="1" vertex="1">
          <mxGeometry x="720" y="750" width="10" height="10" as="geometry" />
        </mxCell>
        <mxCell id="jE244axQyTbM1ohp8PAl-278" value="" style="whiteSpace=wrap;html=1;aspect=fixed;strokeColor=#6c8ebf;fillColor=#dae8fc;" parent="1" vertex="1">
          <mxGeometry x="730" y="750" width="10" height="10" as="geometry" />
        </mxCell>
        <mxCell id="jE244axQyTbM1ohp8PAl-279" value="" style="whiteSpace=wrap;html=1;aspect=fixed;strokeColor=#6c8ebf;fillColor=#dae8fc;" parent="1" vertex="1">
          <mxGeometry x="740" y="750" width="10" height="10" as="geometry" />
        </mxCell>
        <mxCell id="jE244axQyTbM1ohp8PAl-280" value="" style="whiteSpace=wrap;html=1;aspect=fixed;strokeColor=#6c8ebf;fillColor=#dae8fc;" parent="1" vertex="1">
          <mxGeometry x="750" y="750" width="10" height="10" as="geometry" />
        </mxCell>
        <mxCell id="jE244axQyTbM1ohp8PAl-281" value="" style="whiteSpace=wrap;html=1;aspect=fixed;strokeColor=#d6b656;fillColor=#fff2cc;" parent="1" vertex="1">
          <mxGeometry x="760" y="750" width="10" height="10" as="geometry" />
        </mxCell>
        <mxCell id="jE244axQyTbM1ohp8PAl-282" value="" style="whiteSpace=wrap;html=1;aspect=fixed;strokeColor=#d6b656;fillColor=#fff2cc;" parent="1" vertex="1">
          <mxGeometry x="770" y="750" width="10" height="10" as="geometry" />
        </mxCell>
        <mxCell id="jE244axQyTbM1ohp8PAl-283" value="" style="whiteSpace=wrap;html=1;aspect=fixed;strokeColor=#6c8ebf;fillColor=#dae8fc;" parent="1" vertex="1">
          <mxGeometry x="720" y="760" width="10" height="10" as="geometry" />
        </mxCell>
        <mxCell id="jE244axQyTbM1ohp8PAl-284" value="" style="whiteSpace=wrap;html=1;aspect=fixed;strokeColor=#6c8ebf;fillColor=#dae8fc;" parent="1" vertex="1">
          <mxGeometry x="730" y="760" width="10" height="10" as="geometry" />
        </mxCell>
        <mxCell id="jE244axQyTbM1ohp8PAl-285" value="" style="whiteSpace=wrap;html=1;aspect=fixed;strokeColor=#d6b656;fillColor=#fff2cc;" parent="1" vertex="1">
          <mxGeometry x="740" y="760" width="10" height="10" as="geometry" />
        </mxCell>
        <mxCell id="jE244axQyTbM1ohp8PAl-286" value="" style="whiteSpace=wrap;html=1;aspect=fixed;strokeColor=#d6b656;fillColor=#fff2cc;" parent="1" vertex="1">
          <mxGeometry x="750" y="760" width="10" height="10" as="geometry" />
        </mxCell>
        <mxCell id="jE244axQyTbM1ohp8PAl-287" value="" style="whiteSpace=wrap;html=1;aspect=fixed;strokeColor=#d6b656;fillColor=#fff2cc;" parent="1" vertex="1">
          <mxGeometry x="760" y="760" width="10" height="10" as="geometry" />
        </mxCell>
        <mxCell id="jE244axQyTbM1ohp8PAl-288" value="" style="whiteSpace=wrap;html=1;aspect=fixed;strokeColor=#d6b656;fillColor=#fff2cc;" parent="1" vertex="1">
          <mxGeometry x="770" y="760" width="10" height="10" as="geometry" />
        </mxCell>
        <mxCell id="jE244axQyTbM1ohp8PAl-289" value="" style="whiteSpace=wrap;html=1;aspect=fixed;strokeColor=#d6b656;fillColor=#fff2cc;" parent="1" vertex="1">
          <mxGeometry x="720" y="770" width="10" height="10" as="geometry" />
        </mxCell>
        <mxCell id="jE244axQyTbM1ohp8PAl-290" value="" style="whiteSpace=wrap;html=1;aspect=fixed;strokeColor=#d6b656;fillColor=#fff2cc;" parent="1" vertex="1">
          <mxGeometry x="730" y="770" width="10" height="10" as="geometry" />
        </mxCell>
        <mxCell id="jE244axQyTbM1ohp8PAl-291" value="" style="whiteSpace=wrap;html=1;aspect=fixed;strokeColor=#d6b656;fillColor=#fff2cc;" parent="1" vertex="1">
          <mxGeometry x="740" y="770" width="10" height="10" as="geometry" />
        </mxCell>
        <mxCell id="jE244axQyTbM1ohp8PAl-292" value="" style="whiteSpace=wrap;html=1;aspect=fixed;strokeColor=#d6b656;fillColor=#fff2cc;" parent="1" vertex="1">
          <mxGeometry x="750" y="770" width="10" height="10" as="geometry" />
        </mxCell>
        <mxCell id="jE244axQyTbM1ohp8PAl-293" value="" style="whiteSpace=wrap;html=1;aspect=fixed;strokeColor=#d6b656;fillColor=#fff2cc;" parent="1" vertex="1">
          <mxGeometry x="760" y="770" width="10" height="10" as="geometry" />
        </mxCell>
        <mxCell id="jE244axQyTbM1ohp8PAl-294" value="" style="whiteSpace=wrap;html=1;aspect=fixed;strokeColor=#82b366;fillColor=#d5e8d4;" parent="1" vertex="1">
          <mxGeometry x="770" y="770" width="10" height="10" as="geometry" />
        </mxCell>
        <mxCell id="jE244axQyTbM1ohp8PAl-295" value="" style="whiteSpace=wrap;html=1;aspect=fixed;fillColor=none;fontColor=#ffffff;strokeColor=#2D7600;strokeWidth=2;" parent="1" vertex="1">
          <mxGeometry x="790" y="730" width="20" height="20" as="geometry" />
        </mxCell>
        <mxCell id="jE244axQyTbM1ohp8PAl-296" value="" style="whiteSpace=wrap;html=1;aspect=fixed;fillColor=none;fontColor=#ffffff;strokeColor=#2D7600;strokeWidth=2;" parent="1" vertex="1">
          <mxGeometry x="740" y="800" width="20" height="20" as="geometry" />
        </mxCell>
        <mxCell id="jE244axQyTbM1ohp8PAl-297" value="" style="whiteSpace=wrap;html=1;aspect=fixed;fillColor=none;fontColor=#ffffff;strokeColor=#2D7600;strokeWidth=2;" parent="1" vertex="1">
          <mxGeometry x="790" y="750" width="10" height="10" as="geometry" />
        </mxCell>
        <mxCell id="jE244axQyTbM1ohp8PAl-300" value="" style="whiteSpace=wrap;html=1;aspect=fixed;fillColor=none;fontColor=#ffffff;strokeColor=#2D7600;strokeWidth=2;" parent="1" vertex="1">
          <mxGeometry x="790" y="760" width="10" height="10" as="geometry" />
        </mxCell>
        <mxCell id="jE244axQyTbM1ohp8PAl-301" value="" style="whiteSpace=wrap;html=1;aspect=fixed;fillColor=none;fontColor=#ffffff;strokeColor=#2D7600;strokeWidth=2;" parent="1" vertex="1">
          <mxGeometry x="790" y="770" width="10" height="10" as="geometry" />
        </mxCell>
        <mxCell id="jE244axQyTbM1ohp8PAl-302" value="" style="whiteSpace=wrap;html=1;aspect=fixed;fillColor=none;fontColor=#ffffff;strokeColor=#2D7600;strokeWidth=2;" parent="1" vertex="1">
          <mxGeometry x="790" y="780" width="10" height="10" as="geometry" />
        </mxCell>
        <mxCell id="jE244axQyTbM1ohp8PAl-303" value="" style="whiteSpace=wrap;html=1;aspect=fixed;fillColor=none;fontColor=#ffffff;strokeColor=#2D7600;strokeWidth=2;" parent="1" vertex="1">
          <mxGeometry x="790" y="790" width="10" height="10" as="geometry" />
        </mxCell>
        <mxCell id="jE244axQyTbM1ohp8PAl-304" value="" style="whiteSpace=wrap;html=1;aspect=fixed;fillColor=none;fontColor=#ffffff;strokeColor=#2D7600;strokeWidth=2;" parent="1" vertex="1">
          <mxGeometry x="790" y="800" width="10" height="10" as="geometry" />
        </mxCell>
        <mxCell id="jE244axQyTbM1ohp8PAl-313" value="" style="whiteSpace=wrap;html=1;aspect=fixed;fillColor=none;fontColor=#ffffff;strokeColor=#2D7600;strokeWidth=2;" parent="1" vertex="1">
          <mxGeometry x="760" y="810" width="10" height="10" as="geometry" />
        </mxCell>
        <mxCell id="jE244axQyTbM1ohp8PAl-315" value="" style="whiteSpace=wrap;html=1;aspect=fixed;fillColor=none;fontColor=#ffffff;strokeColor=#2D7600;strokeWidth=2;" parent="1" vertex="1">
          <mxGeometry x="770" y="810" width="10" height="10" as="geometry" />
        </mxCell>
        <mxCell id="jE244axQyTbM1ohp8PAl-316" value="" style="whiteSpace=wrap;html=1;aspect=fixed;fillColor=none;fontColor=#ffffff;strokeColor=#2D7600;strokeWidth=2;" parent="1" vertex="1">
          <mxGeometry x="780" y="810" width="10" height="10" as="geometry" />
        </mxCell>
        <mxCell id="jE244axQyTbM1ohp8PAl-317" value="" style="whiteSpace=wrap;html=1;aspect=fixed;fillColor=none;fontColor=#ffffff;strokeColor=#2D7600;strokeWidth=2;" parent="1" vertex="1">
          <mxGeometry x="790" y="810" width="10" height="10" as="geometry" />
        </mxCell>
        <mxCell id="jE244axQyTbM1ohp8PAl-318" value="" style="whiteSpace=wrap;html=1;aspect=fixed;fillColor=none;fontColor=#ffffff;strokeColor=#2D7600;strokeWidth=2;" parent="1" vertex="1">
          <mxGeometry x="790" y="820" width="10" height="10" as="geometry" />
        </mxCell>
        <mxCell id="jE244axQyTbM1ohp8PAl-319" value="" style="whiteSpace=wrap;html=1;aspect=fixed;fillColor=none;fontColor=#ffffff;strokeColor=#2D7600;strokeWidth=2;" parent="1" vertex="1">
          <mxGeometry x="790" y="830" width="10" height="10" as="geometry" />
        </mxCell>
        <mxCell id="jE244axQyTbM1ohp8PAl-321" value="" style="whiteSpace=wrap;html=1;aspect=fixed;fillColor=none;fontColor=#ffffff;strokeColor=#2D7600;strokeWidth=2;" parent="1" vertex="1">
          <mxGeometry x="720" y="850" width="10" height="10" as="geometry" />
        </mxCell>
        <mxCell id="jE244axQyTbM1ohp8PAl-323" value="Buildings" style="text;strokeColor=none;fillColor=none;align=left;verticalAlign=middle;spacingLeft=4;spacingRight=4;overflow=hidden;points=[[0,0.5],[1,0.5]];portConstraint=eastwest;rotatable=0;whiteSpace=wrap;html=1;" parent="1" vertex="1">
          <mxGeometry x="730" y="845" width="65" height="20" as="geometry" />
        </mxCell>
        <mxCell id="jE244axQyTbM1ohp8PAl-325" value="&lt;span style=&quot;font-size: 5px;&quot;&gt;check where grid area can be placed&lt;/span&gt;" style="text;strokeColor=none;fillColor=none;align=left;verticalAlign=middle;spacingLeft=4;spacingRight=4;overflow=hidden;points=[[0,0.5],[1,0.5]];portConstraint=eastwest;rotatable=0;whiteSpace=wrap;html=1;" parent="1" vertex="1">
          <mxGeometry x="530" y="724" width="100" height="20" as="geometry" />
        </mxCell>
        <mxCell id="jE244axQyTbM1ohp8PAl-333" value="&lt;font style=&quot;font-size: 8px;&quot;&gt;grid_indice&lt;/font&gt;" style="shape=parallelogram;perimeter=parallelogramPerimeter;whiteSpace=wrap;html=1;fixedSize=1;" parent="1" vertex="1">
          <mxGeometry x="310" y="770" width="120" height="20" as="geometry" />
        </mxCell>
        <mxCell id="jE244axQyTbM1ohp8PAl-334" value="" style="html=1;shadow=0;dashed=0;align=center;verticalAlign=middle;shape=mxgraph.arrows2.arrow;dy=0.65;dx=12.15;notch=0;" parent="1" vertex="1">
          <mxGeometry x="450" y="770" width="40" height="20" as="geometry" />
        </mxCell>
        <mxCell id="jE244axQyTbM1ohp8PAl-335" value="&lt;font style=&quot;font-size: 5px;&quot;&gt;clone array&lt;/font&gt;" style="text;strokeColor=none;fillColor=none;align=left;verticalAlign=middle;spacingLeft=4;spacingRight=4;overflow=hidden;points=[[0,0.5],[1,0.5]];portConstraint=eastwest;rotatable=0;whiteSpace=wrap;html=1;" parent="1" vertex="1">
          <mxGeometry x="444" y="760" width="35" height="20" as="geometry" />
        </mxCell>
        <mxCell id="jE244axQyTbM1ohp8PAl-336" value="&lt;div&gt;&lt;span style=&quot;font-size: 5px;&quot;&gt;[[0. 0. 0. 0. 0. 0. 0. 0.]&lt;/span&gt;&lt;/div&gt;&lt;div&gt;&lt;span style=&quot;font-size: 5px;&quot;&gt;&amp;nbsp;[0. 0. 0. 0. 0. 0. 0. 0.]&lt;/span&gt;&lt;/div&gt;&lt;div&gt;&lt;span style=&quot;font-size: 5px;&quot;&gt;&amp;nbsp;[0. 0. 0. 0. 0. 0. 0. 0.]&lt;/span&gt;&lt;/div&gt;&lt;div&gt;&lt;span style=&quot;font-size: 5px;&quot;&gt;&amp;nbsp;[0. 0. 0. 0. 0. 0. 0. 0.]&lt;/span&gt;&lt;/div&gt;&lt;div&gt;&lt;span style=&quot;font-size: 5px;&quot;&gt;&amp;nbsp;[0. 0. 0. 0. 0. 0. 0. 0.]&lt;/span&gt;&lt;/div&gt;&lt;div&gt;&lt;span style=&quot;font-size: 5px;&quot;&gt;&amp;nbsp;[0. 0. 0. 0. 0. 0. 0. 0.]&lt;/span&gt;&lt;/div&gt;&lt;div&gt;&lt;span style=&quot;font-size: 5px;&quot;&gt;&amp;nbsp;[0. 0. 0. 0. 0. 0. 0. 0.]&lt;/span&gt;&lt;/div&gt;&lt;div&gt;&lt;span style=&quot;font-size: 5px;&quot;&gt;&amp;nbsp;[0. 0. 0. 0. 0. 0. 0. 0.]]&lt;/span&gt;&lt;/div&gt;" style="text;strokeColor=none;fillColor=none;align=left;verticalAlign=middle;spacingLeft=4;spacingRight=4;overflow=hidden;points=[[0,0.5],[1,0.5]];portConstraint=eastwest;rotatable=0;whiteSpace=wrap;html=1;" parent="1" vertex="1">
          <mxGeometry x="340" y="640" width="60" height="130" as="geometry" />
        </mxCell>
        <mxCell id="jE244axQyTbM1ohp8PAl-337" value="&lt;font style=&quot;font-size: 5px;&quot;&gt;&lt;b&gt;i.e 8 x 8&lt;/b&gt;&lt;/font&gt;" style="text;strokeColor=none;fillColor=none;align=left;verticalAlign=middle;spacingLeft=4;spacingRight=4;overflow=hidden;points=[[0,0.5],[1,0.5]];portConstraint=eastwest;rotatable=0;whiteSpace=wrap;html=1;" parent="1" vertex="1">
          <mxGeometry x="352.5" y="635" width="35" height="20" as="geometry" />
        </mxCell>
      </root>
    </mxGraphModel>
  </diagram>
</mxfile>
